<svg width="100" height="100" viewBox="0 0 100 100" fill="none" xmlns="http://www.w3.org/2000/svg">
<path d="M59.8965 31.3858C65.894 32.9517 91.6853 41.7589 89.9128 77.2527" stroke="#E1251B" stroke-width="2" stroke-miterlimit="10" stroke-linecap="round"/>
<path d="M70.7043 93C74.3433 91.2871 78.742 84.9941 78.7347 77.8042C78.7347 62.1672 70.7043 52.7277 70.7043 52.7277" stroke="#E1251B" stroke-width="2" stroke-miterlimit="10" stroke-linecap="round"/>
<path d="M70.495 49.6031C70.495 49.6031 72.1807 57.3664 65.9155 61.7995C61.1913 65.1445 54.181 62.4611 52.0902 61.498" stroke="#091129" stroke-width="2" stroke-miterlimit="10" stroke-linecap="round"/>
<path d="M50.2237 7C46.686 7 42.6708 8.42622 40.0736 11.2713C37.556 14.0282 37.6717 19.0641 37.6717 22.387C37.6717 26.4157 38.3518 29.3637 40.7971 31.5398C41.3975 32.0838 43.3726 33.0395 43.7415 33.7673C44.4722 35.2009 47.7567 36.311 50.2237 36.311C52.6907 36.311 55.9753 35.2009 56.7059 33.7673C57.0749 33.0469 59.05 32.0838 59.6504 31.5398C62.0957 29.3711 62.7758 26.4157 62.7758 22.387C62.7758 19.0641 62.8915 14.0282 60.3739 11.2713C57.7694 8.42622 53.7615 7 50.2237 7Z" stroke="#091129" stroke-width="2" stroke-miterlimit="10" stroke-linecap="round"/>
<path d="M40.5508 31.3784C34.5026 32.9296 8.31339 41.7222 10.0859 77.2527" stroke="#091129" stroke-width="2" stroke-miterlimit="10" stroke-linecap="round"/>
<path d="M29.9448 49.6031C29.9448 49.6031 28.2592 57.3664 34.5243 61.7995C39.2485 65.1445 46.2589 62.4611 48.3497 61.498" stroke="#091129" stroke-width="2" stroke-miterlimit="10" stroke-linecap="round"/>
<path d="M29.735 52.7277C29.735 52.7277 21.7046 62.1672 21.7046 77.8042C21.7046 84.9941 26.096 91.2797 29.735 93" stroke="#091129" stroke-width="2" stroke-miterlimit="10" stroke-linecap="round"/>
</svg>