<svg xmlns="http://www.w3.org/2000/svg" width="100" height="100" viewBox="0 0 100 100">
  <g id="ico_tech_cancer_research" transform="translate(-10.702 130.5)">
    <g id="그룹_1" data-name="그룹 1" transform="translate(14 -128)">
      <circle id="타원_15" data-name="타원 15" cx="29.5" cy="29.5" r="29.5" transform="translate(17.5 17.5)" fill="none" stroke="#b8b8b8" stroke-linejoin="round" stroke-width="1"/>
      <circle id="타원_16" data-name="타원 16" cx="6" cy="6" r="6" transform="translate(40.5 0.5)" fill="none" stroke="#b8b8b8" stroke-linejoin="round" stroke-width="1"/>
      <path id="패스_22" data-name="패스 22" d="M47,13V23" fill="none" stroke="#b8b8b8" stroke-linecap="round" stroke-linejoin="round" stroke-width="1"/>
      <circle id="타원_17" data-name="타원 17" cx="6" cy="6" r="6" transform="translate(40.5 82.5)" fill="none" stroke="#b8b8b8" stroke-linejoin="round" stroke-width="1"/>
      <path id="패스_23" data-name="패스 23" d="M47,82V72" fill="none" stroke="#b8b8b8" stroke-linecap="round" stroke-linejoin="round" stroke-width="1"/>
      <ellipse id="타원_18" data-name="타원 18" cx="6.063" cy="5.936" rx="6.063" ry="5.936" transform="matrix(0.562, -0.827, 0.827, 0.562, 2.702, 29.863)" fill="none" stroke="#b8b8b8" stroke-linejoin="round" stroke-width="1"/>
      <path id="패스_24" data-name="패스 24" d="M16,32l8.362,5.484" fill="none" stroke="#b8b8b8" stroke-linecap="round" stroke-linejoin="round" stroke-width="1"/>
      <ellipse id="타원_19" data-name="타원 19" cx="6.063" cy="5.936" rx="6.063" ry="5.936" transform="matrix(-0.562, -0.827, 0.827, -0.562, 9.511, 76.171)" fill="none" stroke="#b8b8b8" stroke-linejoin="round" stroke-width="1"/>
      <path id="패스_25" data-name="패스 25" d="M16,64l8.362-5.484" fill="none" stroke="#b8b8b8" stroke-linecap="round" stroke-linejoin="round" stroke-width="1"/>
      <ellipse id="타원_20" data-name="타원 20" cx="6.063" cy="5.936" rx="6.063" ry="5.936" transform="matrix(0.562, 0.827, -0.827, 0.562, 84.489, 19.829)" fill="none" stroke="#b8b8b8" stroke-linejoin="round" stroke-width="1"/>
      <path id="패스_26" data-name="패스 26" d="M78,32l-8.362,5.484" fill="none" stroke="#b8b8b8" stroke-linecap="round" stroke-linejoin="round" stroke-width="1"/>
      <ellipse id="타원_21" data-name="타원 21" cx="6.063" cy="5.936" rx="6.063" ry="5.936" transform="matrix(-0.562, 0.827, -0.827, -0.562, 91.298, 66.137)" fill="none" stroke="#b8b8b8" stroke-linejoin="round" stroke-width="1"/>
      <path id="패스_27" data-name="패스 27" d="M78,64l-8.362-5.484" fill="none" stroke="#b8b8b8" stroke-linecap="round" stroke-linejoin="round" stroke-width="1"/>
    </g>
  </g>
</svg>
