<svg width="714" height="714" viewBox="0 0 714 714" fill="none" xmlns="http://www.w3.org/2000/svg">
<path d="M357 712C553.061 712 712 553.061 712 357C712 160.939 553.061 2 357 2C160.939 2 2 160.939 2 357C2 553.061 160.939 712 357 712Z" stroke="#E1251B" stroke-width="3" stroke-miterlimit="10"/>
<path d="M569.56 641.36C534.3 667.91 399.16 619.08 248.9 507.56C98.6396 396.05 5.70963 277.1 22.6896 237.29" stroke="#E1251B" stroke-width="3" stroke-miterlimit="10"/>
<path d="M173.199 53.2304C214.159 37.8104 342.609 73.1404 487.819 180.91C633.029 288.68 711.849 396.89 701.279 443.93" stroke="#E1251B" stroke-width="3" stroke-miterlimit="10"/>
<path d="M3.40039 388.76C7.89039 439.74 45.8504 543.64 163.2 630.73C280.54 717.81 395.84 709.31 435.04 703.39" stroke="#E1251B" stroke-width="3" stroke-miterlimit="10"/>
<path d="M697.63 457.329C697.53 457.459 697.43 457.599 697.33 457.729" stroke="#E1251B" stroke-width="2" stroke-linecap="square" stroke-linejoin="round"/>
<path d="M692.67 462.909C647.21 506.029 502.37 458.749 360.25 353.269C215.5 245.839 127.83 117.589 160.85 63.1689" stroke="#E1251B" stroke-width="2" stroke-linecap="square" stroke-linejoin="round" stroke-dasharray="1 7"/>
<path d="M162.779 60.2594C162.879 60.1294 162.979 59.9894 163.069 59.8594" stroke="#E1251B" stroke-width="2" stroke-linecap="square" stroke-linejoin="round"/>
<path d="M561.09 647.359C561.2 647.239 561.31 647.109 561.42 646.989" stroke="#E1251B" stroke-width="2" stroke-linecap="square" stroke-linejoin="round"/>
<path d="M565.55 641.379C600.27 585.599 498.85 466.949 354.86 360.089C208.85 251.719 62.3705 200.439 22.7305 242.849" stroke="#E1251B" stroke-width="2" stroke-linecap="square" stroke-linejoin="round" stroke-dasharray="1 7"/>
<path d="M20.4699 245.52C20.3699 245.65 20.2699 245.78 20.1699 245.92" stroke="#E1251B" stroke-width="2" stroke-linecap="square" stroke-linejoin="round"/>
<g opacity="0.2">
<path d="M481.189 689.969C481.329 689.879 481.459 689.779 481.599 689.689" stroke="#E1251B" stroke-width="2" stroke-linecap="square" stroke-linejoin="round"/>
<path d="M487.24 685.579C578.83 614.289 476.47 456.519 351.57 363.819C225.45 270.219 33.6403 224.069 4.32031 337.989" stroke="#E1251B" stroke-width="2" stroke-linecap="square" stroke-linejoin="round" stroke-dasharray="1 7"/>
<path d="M3.51039 341.38C3.47039 341.54 3.44039 341.7 3.40039 341.86" stroke="#E1251B" stroke-width="2" stroke-linecap="square" stroke-linejoin="round"/>
</g>
<path d="M647.21 559.95C647.13 560.06 646.98 560.12 646.76 560.12" stroke="#E1251B" stroke-width="2" stroke-linecap="square" stroke-linejoin="round"/>
<path d="M640.339 557.48C611.239 541.93 494.099 459.56 356.259 357.26C212.799 250.79 96.9991 158.87 80.5391 140.06" stroke="#E1251B" stroke-width="2" stroke-linecap="square" stroke-linejoin="round" stroke-dasharray="1 7"/>
<path d="M78.5599 137.19C78.5099 136.98 78.5199 136.82 78.5999 136.71" stroke="#E1251B" stroke-width="2" stroke-linecap="square" stroke-linejoin="round"/>
<path d="M78.5996 136.71C83.8296 129.57 216.21 217.56 374.29 333.24C532.37 448.93 656.27 548.5 651.05 555.64" stroke="#E1251B" stroke-width="3" stroke-miterlimit="10"/>
</svg>
